<svg xmlns="http://www.w3.org/2000/svg" width="512" height="512" viewBox="0 0 512 512">
  <defs>
    <linearGradient id="bg" x1="0%" y1="0%" x2="100%" y2="100%">
      <stop offset="0%" style="stop-color:#667eea;stop-opacity:1" />
      <stop offset="100%" style="stop-color:#764ba2;stop-opacity:1" />
    </linearGradient>
  </defs>

  <rect width="512" height="512" rx="100" fill="url(#bg)"/>

  <g transform="translate(256, 256)">
    <circle cx="0" cy="0" r="180" fill="rgba(255, 255, 255, 0.15)"/>

    <path d="M-60 -40 C-60 -80, -30 -110, 10 -110 L40 -110 C60 -110, 80 -90, 80 -70 L80 -30 C80 -10, 60 10, 40 10 L10 10 C-30 10, -60 -20, -60 -60 Z" fill="white" opacity="0.9"/>

    <circle cx="0" cy="0" r="8" fill="#764ba2"/>

    <path d="M-80 60 C-80 40, -60 20, -40 20 L40 20 C60 20, 80 40, 80 60 L80 100 C80 120, 60 140, 40 140 L-40 140 C-60 140, -80 120, -80 100 Z" fill="white" opacity="0.9"/>

    <rect x="-60" y="50" width="120" height="10" rx="5" fill="#764ba2"/>
    <rect x="-60" y="70" width="80" height="10" rx="5" fill="#764ba2" opacity="0.5"/>
    <rect x="-60" y="90" width="100" height="10" rx="5" fill="#764ba2" opacity="0.3"/>
  </g>
</svg>